<svg width="150" height="150" viewBox="0 0 150 150" fill="none" xmlns="http://www.w3.org/2000/svg">
<g clip-path="url(#clip0_2_3)">
<path d="M92.9119 49.5597C92.5426 45.4972 90.8991 42.3395 87.9815 40.0866C85.1009 37.7969 80.983 36.652 75.6278 36.652C72.0824 36.652 69.1278 37.1136 66.7642 38.0369C64.4006 38.9602 62.6278 40.2344 61.446 41.8594C60.2642 43.4474 59.6548 45.2756 59.6179 47.3438C59.544 49.0426 59.8764 50.5383 60.6151 51.831C61.3906 53.1236 62.4986 54.2685 63.9389 55.2656C65.4162 56.2259 67.1889 57.0753 69.2571 57.8139C71.3253 58.5526 73.652 59.1989 76.2372 59.7528L85.9872 61.9688C91.6009 63.1875 96.5497 64.8125 100.834 66.8438C105.155 68.875 108.774 71.294 111.692 74.1009C114.646 76.9077 116.881 80.1392 118.395 83.7955C119.909 87.4517 120.685 91.5511 120.722 96.0938C120.685 103.259 118.875 109.408 115.293 114.541C111.71 119.675 106.558 123.608 99.8366 126.341C93.152 129.074 85.0824 130.44 75.6278 130.44C66.1364 130.44 57.8636 129.018 50.8097 126.175C43.7557 123.331 38.2713 119.01 34.3565 113.212C30.4418 107.413 28.429 100.082 28.3182 91.2188H54.5767C54.7983 94.875 55.777 97.9219 57.5128 100.359C59.2486 102.797 61.6307 104.643 64.6591 105.899C67.7244 107.155 71.2699 107.783 75.2955 107.783C78.9886 107.783 82.1278 107.284 84.7131 106.287C87.3352 105.29 89.348 103.905 90.7514 102.132C92.1548 100.359 92.875 98.3281 92.9119 96.0384C92.875 93.8963 92.2102 92.0682 90.9176 90.554C89.625 89.0028 87.6307 87.6733 84.9347 86.5653C82.2756 85.4205 78.8778 84.3679 74.7415 83.4077L62.8864 80.6378C53.0625 78.3849 45.3253 74.7472 39.6747 69.7244C34.0241 64.6648 31.2173 57.8324 31.2543 49.2273C31.2173 42.2102 33.1009 36.0611 36.9048 30.7798C40.7088 25.4986 45.9716 21.3807 52.6932 18.4261C59.4148 15.4716 67.0781 13.9943 75.6832 13.9943C84.473 13.9943 92.0994 15.4901 98.5625 18.4815C105.062 21.4361 110.104 25.5909 113.686 30.946C117.268 36.3011 119.097 42.5057 119.17 49.5597H92.9119Z" fill="#FBF5EF"/>
<line x1="39" y1="71" x2="111" y2="71" stroke="#F2D3AB" stroke-width="28" stroke-linecap="square"/>
</g>
<defs>
<clipPath id="clip0_2_3">
<rect width="150" height="150" fill="white"/>
</clipPath>
</defs>
</svg>
