<svg width="509" height="174" viewBox="0 0 509 174" fill="none" xmlns="http://www.w3.org/2000/svg">
<path d="M335.25 113.906C330.208 113.906 325.875 112.875 322.25 110.812C318.646 108.729 315.865 105.833 313.906 102.125C311.969 98.3958 311 94.0729 311 89.1562C311 84.2187 311.969 79.8958 313.906 76.1875C315.865 72.4583 318.646 69.5625 322.25 67.5C325.875 65.4167 330.208 64.375 335.25 64.375C340.292 64.375 344.615 65.4167 348.219 67.5C351.844 69.5625 354.625 72.4583 356.563 76.1875C358.521 79.8958 359.5 84.2187 359.5 89.1562C359.5 94.0729 358.521 98.3958 356.563 102.125C354.625 105.833 351.844 108.729 348.219 110.812C344.615 112.875 340.292 113.906 335.25 113.906ZM335.344 102.375C337.177 102.375 338.729 101.812 340 100.687C341.271 99.5625 342.24 98 342.906 96C343.594 94 343.938 91.6875 343.938 89.0625C343.938 86.3958 343.594 84.0625 342.906 82.0625C342.24 80.0625 341.271 78.5 340 77.375C338.729 76.25 337.177 75.6875 335.344 75.6875C333.448 75.6875 331.844 76.25 330.531 77.375C329.24 78.5 328.25 80.0625 327.563 82.0625C326.896 84.0625 326.562 86.3958 326.562 89.0625C326.562 91.6875 326.896 94 327.563 96C328.25 98 329.24 99.5625 330.531 100.687C331.844 101.812 333.448 102.375 335.344 102.375ZM398.297 92.2812V65H413.547V113H398.984V104.062H398.484C397.422 107 395.609 109.333 393.047 111.062C390.505 112.771 387.432 113.625 383.828 113.625C380.557 113.625 377.682 112.875 375.203 111.375C372.724 109.875 370.797 107.781 369.422 105.094C368.047 102.385 367.349 99.2187 367.328 95.5937V65H382.609V92.5937C382.63 95.1979 383.318 97.25 384.672 98.75C386.026 100.25 387.87 101 390.203 101C391.724 101 393.089 100.667 394.297 100C395.526 99.3125 396.495 98.3229 397.203 97.0312C397.932 95.7187 398.297 94.1354 398.297 92.2812ZM450.367 65V76.25H420.086V65H450.367ZM426.43 53.5H441.711V97.9062C441.711 98.8437 441.857 99.6042 442.148 100.187C442.461 100.75 442.909 101.156 443.492 101.406C444.076 101.635 444.773 101.75 445.586 101.75C446.169 101.75 446.784 101.698 447.43 101.594C448.096 101.469 448.596 101.365 448.93 101.281L451.242 112.312C450.513 112.521 449.482 112.781 448.148 113.094C446.836 113.406 445.263 113.604 443.43 113.688C439.846 113.854 436.773 113.437 434.211 112.437C431.669 111.417 429.721 109.833 428.367 107.687C427.034 105.542 426.388 102.844 426.43 99.5938V53.5Z" fill="#F2D3AB"/>
<path d="M89.4375 68.1875C89.2292 65.8958 88.3021 64.1146 86.6563 62.8438C85.0313 61.5521 82.7083 60.9062 79.6875 60.9062C77.6875 60.9062 76.0208 61.1667 74.6875 61.6875C73.3542 62.2083 72.3542 62.9271 71.6875 63.8438C71.0208 64.7396 70.6771 65.7708 70.6563 66.9375C70.6146 67.8958 70.8021 68.7396 71.2188 69.4687C71.6563 70.1979 72.2813 70.8437 73.0938 71.4062C73.9271 71.9479 74.9271 72.4271 76.0938 72.8437C77.2604 73.2604 78.5729 73.625 80.0313 73.9375L85.5313 75.1875C88.6979 75.875 91.4896 76.7917 93.9063 77.9375C96.3438 79.0833 98.3854 80.4479 100.031 82.0312C101.698 83.6146 102.958 85.4375 103.813 87.5C104.667 89.5625 105.104 91.875 105.125 94.4375C105.104 98.4792 104.083 101.948 102.062 104.844C100.042 107.74 97.1354 109.958 93.3438 111.5C89.5729 113.042 85.0208 113.813 79.6875 113.813C74.3333 113.813 69.6667 113.01 65.6875 111.406C61.7083 109.802 58.6146 107.365 56.4063 104.094C54.1979 100.823 53.0625 96.6875 53 91.6875H67.8125C67.9375 93.75 68.4896 95.4688 69.4688 96.8438C70.4479 98.2188 71.7917 99.2604 73.5 99.9687C75.2292 100.677 77.2292 101.031 79.5 101.031C81.5833 101.031 83.3542 100.75 84.8125 100.187C86.2917 99.625 87.4271 98.8437 88.2188 97.8437C89.0104 96.8437 89.4167 95.6979 89.4375 94.4062C89.4167 93.1979 89.0417 92.1667 88.3125 91.3125C87.5833 90.4375 86.4583 89.6875 84.9375 89.0625C83.4375 88.4167 81.5208 87.8229 79.1875 87.2812L72.5 85.7187C66.9583 84.4479 62.5938 82.3958 59.4063 79.5625C56.2188 76.7083 54.6354 72.8542 54.6563 68C54.6354 64.0417 55.6979 60.5729 57.8438 57.5937C59.9896 54.6146 62.9583 52.2917 66.75 50.625C70.5417 48.9583 74.8646 48.125 79.7188 48.125C84.6771 48.125 88.9792 48.9687 92.625 50.6562C96.2917 52.3229 99.1354 54.6667 101.156 57.6875C103.177 60.7083 104.208 64.2083 104.25 68.1875H89.4375ZM140.031 65V76.25H109.75V65H140.031ZM116.094 53.5H131.375V97.9062C131.375 98.8437 131.521 99.6042 131.812 100.187C132.125 100.75 132.573 101.156 133.156 101.406C133.74 101.635 134.437 101.75 135.25 101.75C135.833 101.75 136.448 101.698 137.094 101.594C137.76 101.469 138.26 101.365 138.594 101.281L140.906 112.312C140.177 112.521 139.146 112.781 137.813 113.094C136.5 113.406 134.927 113.604 133.094 113.688C129.51 113.854 126.438 113.437 123.875 112.437C121.333 111.417 119.385 109.833 118.031 107.687C116.698 105.542 116.052 102.844 116.094 99.5938V53.5ZM147.828 113V65H162.672V73.75H163.172C164.047 70.5833 165.474 68.2292 167.453 66.6875C169.432 65.125 171.734 64.3437 174.359 64.3437C175.068 64.3437 175.797 64.3958 176.547 64.5C177.297 64.5833 177.995 64.7187 178.641 64.9063V78.1875C177.911 77.9375 176.953 77.7396 175.766 77.5938C174.599 77.4479 173.557 77.375 172.641 77.375C170.828 77.375 169.193 77.7812 167.734 78.5937C166.297 79.3854 165.161 80.5 164.328 81.9375C163.516 83.3542 163.109 85.0208 163.109 86.9375V113H147.828ZM184.867 113V65H200.148V113H184.867ZM192.523 59.4063C190.378 59.4063 188.534 58.6979 186.992 57.2812C185.451 55.8437 184.68 54.1146 184.68 52.0937C184.68 50.0937 185.451 48.3854 186.992 46.9687C188.534 45.5312 190.378 44.8125 192.523 44.8125C194.69 44.8125 196.534 45.5312 198.055 46.9687C199.596 48.3854 200.367 50.0937 200.367 52.0937C200.367 54.1146 199.596 55.8437 198.055 57.2812C196.534 58.6979 194.69 59.4063 192.523 59.4063ZM223.656 100.406L223.719 82.1875H225.844L239.344 65H256.656L236.594 89.625H232.563L223.656 100.406ZM209.875 113V49H225.156V113H209.875ZM239.688 113L227.125 93.0625L237.188 82.2187L257.344 113H239.688ZM282.586 113.906C277.565 113.906 273.232 112.917 269.586 110.938C265.961 108.937 263.169 106.094 261.211 102.406C259.273 98.6979 258.305 94.2917 258.305 89.1875C258.305 84.2292 259.284 79.8958 261.242 76.1875C263.201 72.4583 265.961 69.5625 269.523 67.5C273.086 65.4167 277.284 64.375 282.117 64.375C285.534 64.375 288.659 64.9062 291.492 65.9687C294.326 67.0312 296.773 68.6042 298.836 70.6875C300.898 72.7708 302.503 75.3437 303.648 78.4062C304.794 81.4479 305.367 84.9375 305.367 88.875V92.6875H263.648V83.8125H291.148C291.128 82.1875 290.742 80.7396 289.992 79.4687C289.242 78.1979 288.211 77.2083 286.898 76.5C285.607 75.7708 284.117 75.4062 282.43 75.4062C280.721 75.4062 279.19 75.7917 277.836 76.5625C276.482 77.3125 275.409 78.3438 274.617 79.6562C273.826 80.9479 273.409 82.4167 273.367 84.0625V93.0937C273.367 95.0521 273.753 96.7708 274.523 98.25C275.294 99.7083 276.388 100.844 277.805 101.656C279.221 102.469 280.909 102.875 282.867 102.875C284.221 102.875 285.451 102.687 286.555 102.312C287.659 101.938 288.607 101.385 289.398 100.656C290.19 99.9271 290.784 99.0312 291.18 97.9687L305.211 98.375C304.628 101.521 303.346 104.26 301.367 106.594C299.409 108.906 296.836 110.708 293.648 112C290.461 113.271 286.773 113.906 282.586 113.906Z" fill="#FBF5EF"/>
<line x1="308" y1="90" x2="453" y2="90" stroke="#FBF5EF" stroke-width="16"/>
</svg>
